<svg width="105" height="105" viewBox="0 0 105 105" fill="none" xmlns="http://www.w3.org/2000/svg">
    <g clip-path="url(#clip0_275_12604)">
        <path fill-rule="evenodd" clip-rule="evenodd"
            d="M100.116 52.5C100.116 78.7977 78.7977 100.116 52.5 100.116C26.2023 100.116 4.88372 78.7977 4.88372 52.5C4.88372 26.2023 26.2023 4.88372 52.5 4.88372C78.7977 4.88372 100.116 26.2023 100.116 52.5ZM105 52.5C105 81.4949 81.4949 105 52.5 105C23.5051 105 0 81.4949 0 52.5C0 23.5051 23.5051 0 52.5 0C81.4949 0 105 23.5051 105 52.5ZM55.965 21.9979C63.939 23.2172 71.2855 28.9104 73.4399 37.6592C73.6171 38.2631 73.8867 38.4973 74.299 38.567C84.6809 39.0206 90.5692 47.1388 90.9459 55.2683C91.1352 59.3576 89.9536 63.5668 87.193 66.9274C84.4086 70.3169 80.1536 72.6779 74.5208 73.2712L74.3934 73.2846H74.2652H58.2756C58.2203 73.2884 58.1644 73.2902 58.1082 73.2902C56.7596 73.2902 55.6664 72.197 55.6664 70.8484C55.6664 69.4999 56.7596 68.4065 58.1082 68.4065C58.1308 68.4065 58.1535 68.4069 58.176 68.4075V68.4009H74.1333C78.5571 67.9078 81.5491 66.1041 83.4192 63.8274C85.3304 61.5008 86.2072 58.5125 86.0674 55.4943C85.7868 49.4378 81.5059 43.7307 74.0023 43.4427C73.2773 43.4148 72.5826 43.4555 71.9132 43.5562C68.8304 44.0198 66.0479 45.7979 63.2525 48.5527C60.7712 50.9978 58.4739 54.0087 56.0387 57.2002L56.0385 57.2006L56.0364 57.2033C55.7064 57.6357 55.3739 58.0715 55.0382 58.5095C52.2917 62.0926 49.3275 65.8234 45.9098 68.6109C42.4399 71.4411 38.3578 73.4198 33.4022 73.2838C8.29378 72.5942 7.28707 37.1895 32.107 35.0523C32.2932 35.0363 32.4775 35.0243 32.6571 35.0155C33.1822 34.924 33.3285 34.6555 33.4366 34.4567L33.4416 34.4476C38.2776 24.4269 47.4856 20.7012 55.965 21.9979ZM39.5001 36.0146C39.0192 35.7874 38.5376 35.4272 38.9927 34.4809C43.0255 28.0621 49.4087 25.9359 55.2268 26.8255C61.3074 27.7553 66.7599 31.951 68.5616 38.324C68.6369 38.7478 68.5866 39.2876 67.9091 39.5824C67.8555 39.6025 67.802 39.6228 67.7488 39.6435L67.7395 39.6465L67.7419 39.6462C64.732 40.812 62.1336 42.7987 59.8246 45.0742C57.0782 47.7806 54.5536 51.0921 52.148 54.2476L52.1456 54.2509C51.8155 54.6836 51.4878 55.1135 51.1621 55.5385C48.3922 59.1521 45.7414 62.4462 42.823 64.8264C39.9569 67.1641 36.9817 68.4965 33.5363 68.4019C14.4822 67.8786 13.9317 41.5191 32.5259 39.9181C33.0253 39.875 33.5419 39.8737 33.9483 39.8856C34.1475 39.8915 34.3113 39.9001 34.4222 39.9071C34.4774 39.9105 34.5189 39.9136 34.5444 39.9155L34.5612 39.9168L34.5704 39.9176H34.5709H34.5713L34.572 39.9177L34.573 39.9178H34.5734H34.5738L34.6179 39.9217L34.6654 39.9241C37.3621 40.0566 40.3893 41.5138 42.3815 43.3329L42.3873 43.3265C42.8178 43.7066 43.3833 43.9371 44.0026 43.9371C45.3512 43.9371 46.4444 42.8439 46.4444 41.4953C46.4444 40.6996 46.0639 39.9927 45.4746 39.5469C43.8608 38.122 41.7711 36.8443 39.5001 36.0146Z"
            fill="url(#paint0_linear_275_12604)" />
    </g>
    <defs>
        <linearGradient id="paint0_linear_275_12604" x1="0" y1="52.5" x2="105" y2="52.5"
            gradientUnits="userSpaceOnUse">
            <stop stop-color="#009E5B" />
            <stop offset="1" stop-color="#0080A3" />
        </linearGradient>
        <clipPath id="clip0_275_12604">
            <rect width="105" height="105" fill="white" />
        </clipPath>
    </defs>
</svg>
    